# xmcd CD database file
#
# Track frame offsets:
#	182
#	14580
#	34246
#	47793
#	62396
#	75561
#	88907
#	101802
#	114351
#	127665
#	140812
#	155748
#	171489
#	185316
#	198674
#	212330
#	225402
#	238889
#	253416
#	267415
#	281124
#	294010
#	307530
#	323643
#
# Disc length: 4533 seconds
#
# Revision: 0
# Processed by: cddbd v1.5.1PL2 Copyright (c) Steve Scherf et al.
# Submitted via: CDex 1.70beta1
#
DISCID=5711b318
DTITLE=Coleman Hawkins - Henderson Days
DYEAR=2003
DGENRE=Jazz
TTITLE0=The Stampede
TTITLE1=Shake Your Feet
TTITLE2=Money Blues
TTITLE3=Carolina Stamp
TTITLE4=Clarinet Marmalade
TTITLE5=Tozo!
TTITLE6=St. Louis Shuffle
TTITLE7=Whiteman Stomp
TTITLE8=Blazin'
TTITLE9=Wherever There's a Will There's Way (My Baby)
TTITLE10=Hello Lola
TTITLE11=One Hour (If I Could Be With You One Hour Tonight)
TTITLE12=Chinatown, My Chinatown
TTITLE13=Cloudy Skies
TTITLE14=Got Another Sweetie Now
TTITLE15=Bugle Call Rag
TTITLE16=Dee Blues
TTITLE17=Sugar Foot Stomp
TTITLE18=Arabesque
TTITLE19=Donegal Cradle Song
TTITLE20=Queer Notions
TTITLE21=Can You Take It?
TTITLE22=It's the Talk of the Town
TTITLE23=I0ve Got to Sting a Torch Song
EXTD=YEAR: 2003
EXTT0=
EXTT1=
EXTT2=
EXTT3=
EXTT4=
EXTT5=
EXTT6=
EXTT7=
EXTT8=
EXTT9=
EXTT10=
EXTT11=
EXTT12=
EXTT13=
EXTT14=
EXTT15=
EXTT16=
EXTT17=
EXTT18=
EXTT19=
EXTT20=
EXTT21=
EXTT22=
EXTT23=
PLAYORDER=
